<?xml version="1.0" encoding="UTF-8"?>
<svg id="Layer_1" xmlns="http://www.w3.org/2000/svg" version="1.1" viewBox="0 0 43 23.7">
  <!-- Generator: Adobe Illustrator 29.3.1, SVG Export Plug-In . SVG Version: 2.1.0 Build 151)  -->
  <defs>
    <style>
      .st0 {
        fill: currentColor;
      }

      .st1 {
        fill: #009444;
      }
    </style>
  </defs>
  <g>
    <path class="st0" d="M9.8,15.1h-4.8l-.7,2.7H1.1L5.7,0h3.4l4.4,17.9h-3.1l-.6-2.7ZM5.6,12.5h3.6l-1.7-7.3h-.2l-1.7,7.3Z"/>
    <path class="st0" d="M14.4,3.3l2.1-3.3h3.5v17.9h-3V3.3h-2.5Z"/>
    <path class="st0" d="M22.7,3.3l2.1-3.3h3.5v17.9h-3V3.3h-2.5Z"/>
    <path class="st0" d="M35.1,9.7L30.6,0h3.4l2.8,5.7h.2c.4-.9.9-1.9,1.3-2.8l1.4-2.9h3.4l-4.7,9.8v8.1h-3.2v-8.1Z"/>
  </g>
  <rect class="st1" y="20.7" width="43" height="3"/>
</svg>